<svg width="517" height="550" viewBox="0 0 517 550" fill="none" xmlns="http://www.w3.org/2000/svg">
<ellipse cx="258.009" cy="409" rx="258.009" ry="141" fill="url(#paint0_radial_329_58)"/>
<path d="M131.59 223.767C131.59 223.767 152.529 284.085 192.497 306.031" stroke="#DADEEB" stroke-width="1.62363" stroke-miterlimit="10" stroke-linecap="round"/>
<path d="M377.071 310.138L310.145 271.496C308.721 270.672 307.539 269.488 306.717 268.063C305.895 266.639 305.463 265.023 305.463 263.378C305.463 261.733 305.895 260.117 306.717 258.692C307.539 257.267 308.721 256.083 310.145 255.26L377.071 216.623C378.496 215.797 380.113 215.362 381.761 215.361C383.408 215.359 385.026 215.792 386.453 216.615C387.879 217.438 389.064 218.622 389.887 220.049C390.71 221.476 391.143 223.094 391.142 224.741V301.993C391.146 303.642 390.716 305.262 389.894 306.692C389.072 308.121 387.888 309.308 386.462 310.134C385.035 310.96 383.415 311.396 381.767 311.396C380.118 311.397 378.498 310.963 377.071 310.138Z" stroke="#DADEEB" stroke-width="1.62363" stroke-miterlimit="10"/>
<path d="M194.349 177.158C194.349 177.158 190.468 196.311 194.349 208.857" stroke="white" stroke-width="2.16483" stroke-miterlimit="10" stroke-linecap="round"/>
<path d="M198.839 366.704C198.839 366.704 200.225 384.16 192.687 395.666C185.149 407.171 177.812 414.508 182.176 428.015L238.904 399.255L231.964 359.978L198.839 366.704Z" fill="#FF2633"/>
<path d="M198.034 389.104L211.011 386.517" stroke="white" stroke-width="1.8311" stroke-miterlimit="10" stroke-linecap="round"/>
<path d="M258.651 403.176C258.651 403.176 262.978 420.911 257.124 434.001C251.269 447.091 244.931 455.86 251.658 469L305.283 429.998L291.633 390.723L258.651 403.176Z" fill="#FF2633"/>
<path d="M261.433 428.866L274.93 426.008" stroke="white" stroke-width="1.90904" stroke-miterlimit="10" stroke-linecap="round"/>
<path d="M217.252 128.265C217.252 128.265 213.783 110.784 219.888 104.636C225.993 98.4878 235.929 95.7926 241.071 96.8046C244.567 97.5028 249.108 99.0994 249.73 108.257C250.352 117.414 248.978 120.472 248.978 120.472C248.978 120.472 245.541 132.557 238.949 133.715C232.357 134.873 219.525 134.841 217.252 128.265Z" fill="#F3ABAA"/>
<path d="M240.952 97.5732C240.952 97.5732 241.342 101.979 241.813 108.879" stroke="#FF2633" stroke-width="1.08242" stroke-miterlimit="10" stroke-linecap="round"/>
<path d="M232.536 99.186C232.536 99.186 233.288 105.459 234.49 112.397C235.345 117.3 240.275 118.805 242.305 114.665" stroke="#FF2633" stroke-width="1.08242" stroke-miterlimit="10" stroke-linecap="round"/>
<path d="M225.647 102.915C225.647 102.915 226.73 111.395 227.087 113.739C227.444 116.082 228.933 117.749 230.567 117.749C233.111 117.749 234.155 116.591 234.761 114.664" stroke="#FF2633" stroke-width="1.08242" stroke-miterlimit="10" stroke-linecap="round"/>
<path d="M227.097 115.444C227.097 115.444 225.863 117.803 224.629 118.236C223.395 118.669 220.922 118.778 220.191 117.067C219.574 115.622 219.206 113.734 219.331 110.838" stroke="#FF2633" stroke-width="1.08242" stroke-miterlimit="10" stroke-linecap="round"/>
<path d="M237.992 123.394C237.992 123.394 233.96 119.2 235.773 113.49C237.586 107.78 240.206 110.784 240.206 110.784C240.206 110.784 245.883 116.055 247.366 118.042C248.535 119.611 250.386 123.995 248.573 126.506C247.087 128.518 245.2 130.198 243.031 131.442C242.306 131.815 240.287 133.342 237.077 131.848C236.807 131.718 232.65 128.72 237.992 123.394Z" fill="#F3ABAA"/>
<path d="M318.464 276.783C318.464 276.783 329.591 262.988 332.059 248.64L247.133 232.88L201.184 259.611C189.445 265.591 176.034 283.207 182.28 311.967C187.849 337.621 193.916 372.859 193.975 373.237C201.433 377.253 210.043 378.59 218.367 377.026C225.175 375.653 231.575 372.731 237.072 368.486C236.877 367.29 227.633 328.691 223.931 308.211C222.692 301.354 222.795 295.536 228.937 292.24C228.937 292.24 242.738 285.892 247.133 283.63C249.227 282.547 252.821 280.382 256.425 278.153C246.683 290.373 244.026 294.757 242.354 297.56C236.877 306.761 229.809 313.856 234.29 344.461C236.363 358.619 241.553 372.22 248.902 394.161C250.559 399.096 252.317 404.444 254.179 410.337C254.179 410.337 266.697 412.296 279.026 408.172C292.183 403.789 297.503 393.251 297.503 393.251C274.772 340.803 274.848 332.598 280.985 318.262C283.518 312.319 303.927 293.155 318.464 276.783Z" fill="#22174B"/>
<path d="M257.069 275.788L254.855 267.973" stroke="white" stroke-width="1.08242" stroke-miterlimit="10" stroke-linecap="round"/>
<path d="M251.944 403.351C251.944 403.351 272.922 408.222 289.396 393.095" stroke="white" stroke-width="1.08242" stroke-miterlimit="10" stroke-linecap="round"/>
<path d="M192.79 366.468C192.79 366.468 204.983 373.271 218.995 368.676" stroke="white" stroke-width="1.08242" stroke-miterlimit="10" stroke-linecap="round"/>
<path d="M356.203 177.515C347.192 153.864 323.698 138.277 308.089 133.932C300.363 131.011 291.944 130.446 283.897 132.308V132.308C262.249 134.083 242.457 156.5 242.457 156.5C242.192 148.56 242.024 136.475 241.975 132.654C241.968 131.849 241.657 131.076 241.104 130.489C239.15 128.438 234.122 123.865 228.553 124.536C224.837 125.017 221.32 126.492 218.373 128.806C217.479 129.508 216.82 130.465 216.484 131.55C196.963 195.115 202.629 209.739 211.77 215.616C220.403 221.169 227.276 215.551 235.21 210.745C234.582 215.735 234.068 221.028 233.711 226.684C233.711 226.684 232.482 237.692 241.878 242.514C261.756 252.705 279.351 262.441 330.744 251.866C330.744 251.866 332.481 247.991 334.592 241.459C337.861 242.143 341.243 242.08 344.484 241.275C347.725 240.47 350.743 238.944 353.313 236.81C363.601 230.191 366.388 204.245 356.203 177.515Z" fill="#5222D0"/>
<path d="M356.203 177.515C347.192 153.864 323.698 138.277 308.089 133.932C300.363 131.011 291.944 130.446 283.897 132.308V132.308C262.249 134.083 242.457 156.5 242.457 156.5C242.192 148.56 242.024 136.475 241.975 132.654C241.968 131.849 241.657 131.076 241.104 130.489C239.15 128.438 234.122 123.865 228.553 124.536C224.837 125.017 221.32 126.492 218.373 128.806C217.479 129.508 216.82 130.465 216.484 131.55C196.963 195.115 202.629 209.739 211.77 215.616C220.403 221.169 227.276 215.551 235.21 210.745C234.582 215.735 234.068 221.028 233.711 226.684C233.711 226.684 232.482 237.692 241.878 242.514C261.756 252.705 279.351 262.441 330.744 251.866C330.744 251.866 332.481 247.991 334.592 241.459C337.861 242.143 341.243 242.08 344.484 241.275C347.725 240.47 350.743 238.944 353.313 236.81C363.601 230.191 366.388 204.245 356.203 177.515Z" fill="black" fill-opacity="0.2"/>
<path d="M330.019 169.51C330.019 169.51 333.428 189.833 332.059 195.997" stroke="white" stroke-width="1.08242" stroke-miterlimit="10" stroke-linecap="round"/>
<path d="M261.556 148.647C261.556 148.647 246.668 159.163 236.314 205.658" stroke="white" stroke-width="1.08242" stroke-miterlimit="10" stroke-linecap="round"/>
<path d="M337.985 210.569C340.467 209.326 340.654 204.671 338.402 200.173C336.149 195.675 332.311 193.037 329.828 194.28C327.345 195.523 327.158 200.178 329.41 204.676C331.663 209.174 335.502 211.812 337.985 210.569Z" fill="#F3ABAA"/>
<path d="M380.747 61.1931C380.747 61.1931 385.845 80.2598 379.637 89.3359C374.69 96.561 382.424 95.5652 382.424 95.5652C382.424 95.5652 390.402 95.6356 389.254 78.6957C388.221 63.3904 380.747 61.1931 380.747 61.1931Z" fill="#5A526F"/>
<path d="M380.747 61.1931C380.747 61.1931 385.845 80.2598 379.637 89.3359C374.69 96.561 382.424 95.5652 382.424 95.5652C382.424 95.5652 390.402 95.6356 389.254 78.6957C388.221 63.3904 380.747 61.1931 380.747 61.1931Z" fill="black" fill-opacity="0.2"/>
<path d="M338.97 1.29219C341.746 -0.488384 345.166 -0.293549 348.17 1.05406C353.961 3.65186 366.198 10.6497 371.837 14.6979C379.382 20.11 385.427 24.602 390.888 29.6299C394.238 32.7202 397.62 39.6206 394.995 46.2774C391.434 55.3156 384.988 68.5103 369.705 74.5123C365.408 76.1954 359.081 75.0968 355.633 72.0227C345.285 62.8222 326.121 43.9935 322.993 31.2102C322.685 29.9287 322.76 28.585 323.21 27.346C324.914 22.605 329.78 7.17513 338.97 1.29219Z" fill="#5A526F"/>
<path d="M338.97 1.29219C341.746 -0.488384 345.166 -0.293549 348.17 1.05406C353.961 3.65186 366.198 10.6497 371.837 14.6979C379.382 20.11 385.427 24.602 390.888 29.6299C394.238 32.7202 397.62 39.6206 394.995 46.2774C391.434 55.3156 384.988 68.5103 369.705 74.5123C365.408 76.1954 359.081 75.0968 355.633 72.0227C345.285 62.8222 326.121 43.9935 322.993 31.2102C322.685 29.9287 322.76 28.585 323.21 27.346C324.914 22.605 329.78 7.17513 338.97 1.29219Z" fill="black" fill-opacity="0.2"/>
<path d="M325.715 43.9344C325.715 43.9344 327.284 37.402 338.341 28.3151C340.371 26.6482 343.158 25.6091 345.615 26.5183C351.027 28.5749 360.341 33.8246 368.579 49.9905C369.182 51.2345 369.433 52.6199 369.305 53.9965C369.177 55.373 368.675 56.6884 367.853 57.8001C365.017 61.7185 360.612 66.1672 345.62 71.0597L325.715 43.9344Z" fill="#5222D0"/>
<path d="M325.715 43.9344C325.715 43.9344 327.284 37.402 338.341 28.3151C340.371 26.6482 343.158 25.6091 345.615 26.5183C351.027 28.5749 360.341 33.8246 368.579 49.9905C369.182 51.2345 369.433 52.6199 369.305 53.9965C369.177 55.373 368.675 56.6884 367.853 57.8001C365.017 61.7185 360.612 66.1672 345.62 71.0597L325.715 43.9344Z" fill="black" fill-opacity="0.2"/>
<path d="M346.326 70.6864C348.958 68.5788 346.43 61.0507 340.681 53.8719C334.932 46.6932 328.138 42.5822 325.506 44.6898C322.875 46.7974 325.402 54.3255 331.151 61.5043C336.9 68.683 343.694 72.794 346.326 70.6864Z" fill="#22174B"/>
<path d="M316.028 67.9369C316.028 67.9369 323.063 72.3045 322.776 83.1611C322.776 83.1611 326.159 81.8676 328.546 83.2694C332.286 85.4342 334.191 94.3587 328.973 104.068C328.973 104.068 323.605 120.153 316.596 115.72L295.813 91.4633L316.028 67.9369Z" fill="#22174B"/>
<path d="M295.212 108.907C294.454 119.417 287.143 134.998 287.143 134.998C287.143 134.998 294.719 143.468 314.609 138.662C314.609 138.662 315.394 128.439 315.502 125.332C315.984 111.921 313.84 107.099 313.683 109.448L295.212 108.907Z" fill="#F3ABAA"/>
<path d="M291.397 124.509C291.397 124.509 305.469 127.756 315.454 117.013C315.427 116.575 315.4 116.158 315.368 115.758L293.892 116.418C293.194 119.178 292.301 121.96 291.397 124.509Z" fill="#22174B"/>
<path d="M302.136 121.241C314.11 121.241 323.817 111.534 323.817 99.5598C323.817 87.5859 314.11 77.879 302.136 77.879C290.162 77.879 280.455 87.5859 280.455 99.5598C280.455 111.534 290.162 121.241 302.136 121.241Z" fill="#F3ABAA"/>
<path d="M323.324 104.647C321.992 107.228 320.574 106.974 320.168 106.141C319.053 103.824 319.968 101.811 318.783 94.2341C318.355 91.7451 317.04 89.4954 315.081 87.9019C309.274 82.8579 299.927 84.0864 299.748 84.1135C297.459 84.238 295.246 85.0173 293.205 85.5964C276.823 90.2508 276.287 79.8109 276.287 75.281C276.287 67.6174 282.338 61.399 289.817 61.399C292.173 61.4122 294.484 62.0435 296.519 63.2297C298.554 64.4159 300.243 66.1155 301.415 68.1587C303.587 66.0749 306.48 64.9114 309.49 64.9114C316.055 64.9114 321.397 70.3776 321.397 77.1157C321.402 79.1179 320.923 81.0917 320.001 82.8687C322.956 84.8712 324.26 89.4173 324.687 91.1817C325.591 94.8889 324.936 101.513 323.324 104.647Z" fill="#22174B"/>
<path d="M305.855 96.9011C306.05 95.2177 305.54 93.7751 304.715 93.679C303.889 93.583 303.062 94.8697 302.866 96.5531C302.67 98.2365 303.18 99.6791 304.005 99.7752C304.831 99.8713 305.659 98.5845 305.855 96.9011Z" fill="#22174B"/>
<path d="M294.604 95.5864C294.799 93.903 294.289 92.4605 293.464 92.3644C292.639 92.2683 291.811 93.5551 291.615 95.2385C291.419 96.9219 291.929 98.3644 292.754 98.4605C293.58 98.5566 294.408 97.2698 294.604 95.5864Z" fill="#22174B"/>
<path d="M304.369 110.124C304.369 110.124 308.32 111.688 309.954 106.72" stroke="#22174B" stroke-width="1.08242" stroke-miterlimit="10" stroke-linecap="round"/>
<path d="M325.503 108.965C328.682 106.65 329.988 103.026 328.419 100.87C326.849 98.7149 322.999 98.8446 319.819 101.16C316.639 103.475 315.334 107.1 316.903 109.255C318.473 111.41 322.323 111.281 325.503 108.965Z" fill="#F3ABAA"/>
<path d="M320.168 106.141L326.57 103.402" stroke="#22174B" stroke-width="1.08242" stroke-miterlimit="10" stroke-linecap="round"/>
<path d="M298.665 96.7884L297.253 102.828C297.212 103.004 297.208 103.186 297.241 103.363C297.274 103.54 297.344 103.708 297.446 103.857C297.548 104.005 297.679 104.131 297.832 104.226C297.985 104.321 298.157 104.383 298.335 104.409L299.785 104.641" stroke="#22174B" stroke-width="1.08242" stroke-miterlimit="10" stroke-linecap="round"/>
<path d="M315.097 252.413L249.952 241.871C247.49 241.472 245.271 240.154 243.745 238.181C242.219 236.209 241.499 233.73 241.731 231.247L245.98 185.785C246.44 180.914 250.699 177.819 255.597 177.602C265.777 177.158 277.375 176.796 291.225 178.051C304.555 179.264 314.6 180.795 322.328 182.11C331.415 183.653 334.743 188.827 334.078 195.917L329.862 240.988C329.7 242.731 329.181 244.423 328.338 245.957C327.495 247.491 326.345 248.836 324.961 249.907C323.576 250.978 321.986 251.754 320.289 252.185C318.593 252.616 316.826 252.694 315.097 252.413V252.413Z" fill="white"/>
<path d="M275.86 232.719L271.617 227.215L265.155 228.887C267.475 222.625 270.473 216.637 274.096 211.027L283.556 217.316C280.453 222.163 277.873 227.326 275.86 232.719V232.719ZM283.556 217.316L278.826 214.161L283.556 217.311V217.316Z" fill="#FF2633"/>
<path d="M289.261 233.53C287.097 224.92 286.425 215.156 286.398 214.745L297.764 213.998C297.764 214.09 298.386 223.161 300.302 230.749L293.808 228.362L289.261 233.53Z" fill="#FF2633"/>
<path d="M274.101 211.011C274.009 211.141 273.1 212.515 271.822 214.729C274.044 217.965 277.306 220.342 281.066 221.467C282.452 218.988 283.491 217.408 283.556 217.316L278.826 214.166L274.101 211.011Z" fill="#22174B"/>
<path d="M297.741 213.998L286.376 214.745C286.376 214.972 286.603 218.074 287.155 222.263C291.177 222.13 295.034 220.634 298.093 218.019C297.85 215.633 297.741 214.036 297.741 213.998Z" fill="#22174B"/>
<path d="M303.664 204.308C304.03 195.492 296.638 188.026 287.153 187.632C277.668 187.237 269.682 194.065 269.316 202.88C268.949 211.696 276.341 219.163 285.826 219.557C295.311 219.951 303.297 213.124 303.664 204.308Z" fill="#FF2633"/>
<path d="M288.189 196.458L289.347 199.835C289.411 200.014 289.516 200.175 289.654 200.305C289.793 200.435 289.96 200.53 290.143 200.582L293.585 201.534C293.795 201.593 293.985 201.71 294.133 201.872C294.28 202.033 294.38 202.232 294.421 202.447C294.461 202.662 294.441 202.884 294.362 203.088C294.283 203.292 294.149 203.47 293.975 203.602L291.122 205.766C290.971 205.88 290.849 206.03 290.768 206.201C290.687 206.373 290.649 206.562 290.657 206.751L290.814 210.318C290.823 210.537 290.771 210.753 290.663 210.944C290.556 211.135 290.397 211.291 290.205 211.397C290.013 211.502 289.796 211.551 289.577 211.54C289.359 211.528 289.148 211.455 288.968 211.33L286.046 209.279C285.89 209.17 285.71 209.101 285.521 209.077C285.333 209.054 285.141 209.076 284.963 209.144L281.619 210.388C281.414 210.464 281.192 210.481 280.978 210.438C280.764 210.394 280.567 210.292 280.408 210.142C280.249 209.993 280.134 209.802 280.078 209.591C280.021 209.38 280.024 209.158 280.087 208.949L281.132 205.539C281.19 205.356 281.202 205.162 281.167 204.973C281.132 204.784 281.051 204.607 280.931 204.457L278.685 201.637C278.551 201.465 278.466 201.26 278.442 201.043C278.418 200.826 278.454 200.607 278.547 200.409C278.641 200.212 278.787 200.045 278.97 199.926C279.153 199.807 279.366 199.742 279.584 199.737L283.156 199.672C283.347 199.667 283.534 199.615 283.7 199.521C283.866 199.426 284.006 199.293 284.108 199.131L286.084 196.155C286.205 195.966 286.378 195.816 286.582 195.723C286.786 195.63 287.012 195.597 287.234 195.629C287.456 195.661 287.664 195.756 287.833 195.903C288.002 196.05 288.126 196.242 288.189 196.458Z" fill="#F3ABAA"/>
<path d="M257.644 181.347C257.644 181.347 250.251 180.568 249.607 187.051L248.936 193.546" stroke="#DADEEB" stroke-width="1.62363" stroke-miterlimit="10" stroke-linecap="round"/>
<path d="M313.939 184.724C313.939 184.724 322.599 185.411 327.556 188.81" stroke="#DADEEB" stroke-width="1.62363" stroke-miterlimit="10" stroke-linecap="round"/>
<path d="M319.817 207.157C319.817 207.157 321.576 199.223 330.685 202.162C339.793 205.101 343.073 211.14 343.041 213.987C343.041 215.308 343.907 239.738 336.617 241.757C333.499 242.622 320.38 241.67 317.761 230.359C315.141 219.047 319.817 207.157 319.817 207.157Z" fill="#F3ABAA"/>
<path d="M321.607 206.243C321.607 206.243 328.226 207.195 331.484 209.907" stroke="#FF2633" stroke-width="1.08242" stroke-miterlimit="10" stroke-linecap="round"/>
<path d="M319.892 213.132C319.892 213.132 326.511 214.085 329.769 216.796" stroke="#FF2633" stroke-width="1.08242" stroke-miterlimit="10" stroke-linecap="round"/>
<path d="M319.124 219.405C319.124 219.405 325.77 220.357 329.017 223.063" stroke="#FF2633" stroke-width="1.08242" stroke-miterlimit="10" stroke-linecap="round"/>
<path d="M319.124 226.987C319.124 226.987 324.401 226.987 327.659 229.693" stroke="#FF2633" stroke-width="1.08242" stroke-miterlimit="10" stroke-linecap="round"/>
<path d="M345.484 28.1835C349.045 30.2184 363.419 39.713 364.06 56.3668C364.06 58.9289 363.419 64.9499 358.295 65.9747L353.171 67.8963" stroke="white" stroke-width="1.28106" stroke-linecap="round"/>
<defs>
<radialGradient id="paint0_radial_329_58" cx="0" cy="0" r="1" gradientUnits="userSpaceOnUse" gradientTransform="translate(258.009 409) rotate(90) scale(141 258.009)">
<stop stop-color="#22174B"/>
<stop offset="1" stop-color="#22174B" stop-opacity="0"/>
</radialGradient>
</defs>
</svg>
