<svg width="699" height="652" viewBox="0 0 699 652" fill="none" xmlns="http://www.w3.org/2000/svg">
<ellipse cx="388.977" cy="396.88" rx="318.394" ry="174" transform="rotate(-15.9687 388.977 396.88)" fill="url(#paint0_radial_307_58)"/>
<path d="M381.802 174.949C393.592 172.527 401.187 161.007 398.765 149.217C396.344 137.427 384.823 129.833 373.034 132.254C361.244 134.676 353.649 146.196 356.071 157.986C358.492 169.775 370.012 177.37 381.802 174.949Z" fill="white"/>
<g filter="url(#filter0_i_307_58)">
<path d="M166.437 241.785L166.444 241.782C166.544 241.744 166.651 241.725 166.758 241.728C166.865 241.732 166.971 241.756 167.069 241.8C167.167 241.844 167.255 241.907 167.328 241.985C167.402 242.063 167.459 242.155 167.497 242.255C167.535 242.356 167.552 242.463 167.549 242.569C167.545 242.677 167.52 242.782 167.476 242.88C167.432 242.977 167.368 243.065 167.29 243.138C167.211 243.211 167.119 243.268 167.019 243.305L167.011 243.308C127.654 258.144 96.352 273.544 75.4093 287.977C64.9441 295.189 56.9893 302.212 51.9177 308.864C46.8606 315.498 44.5078 321.987 45.7457 328.014C46.8138 333.215 50.3346 337.641 55.7062 341.342C61.0723 345.039 68.4059 348.102 77.3865 350.573C95.3537 355.516 120.262 358.184 150.137 358.593C209.914 359.412 289.923 351.193 374.863 333.749C459.803 316.304 536.575 292.322 591.191 268.01C618.487 255.859 640.327 243.59 654.892 231.966C662.171 226.155 667.704 220.45 671.179 214.937C674.657 209.419 676.148 203.963 675.08 198.763C673.837 192.711 669.091 187.658 661.787 183.546C654.462 179.422 644.324 176.1 631.788 173.599C606.702 168.596 571.652 166.812 529.376 168.746C529.161 168.755 528.952 168.678 528.793 168.533C528.634 168.388 528.539 168.185 528.53 167.97C528.52 167.754 528.596 167.544 528.741 167.385C528.886 167.226 529.087 167.13 529.302 167.119C574.045 165.073 609.867 167.023 635.087 172.54C647.701 175.299 657.569 178.931 664.559 183.333C671.542 187.73 675.518 192.802 676.675 198.435C678.599 207.802 672.542 218.788 658.535 230.828C644.638 242.773 623.395 255.33 596.222 267.789C541.901 292.696 464.225 317.058 375.191 335.343C286.157 353.629 205.167 361.854 145.426 360.373C115.542 359.632 91.0693 356.465 73.59 350.964C55.9706 345.418 46.0747 337.709 44.1509 328.342C42.9987 322.732 44.6402 316.527 49.2913 309.76C53.9476 302.985 61.5332 295.784 71.969 288.303C92.8335 273.346 124.778 257.488 166.437 241.785Z" stroke="url(#paint1_linear_307_58)" stroke-width="3.21479"/>
<path d="M166.437 241.785L166.444 241.782C166.544 241.744 166.651 241.725 166.758 241.728C166.865 241.732 166.971 241.756 167.069 241.8C167.167 241.844 167.255 241.907 167.328 241.985C167.402 242.063 167.459 242.155 167.497 242.255C167.535 242.356 167.552 242.463 167.549 242.569C167.545 242.677 167.52 242.782 167.476 242.88C167.432 242.977 167.368 243.065 167.29 243.138C167.211 243.211 167.119 243.268 167.019 243.305L167.011 243.308C127.654 258.144 96.352 273.544 75.4093 287.977C64.9441 295.189 56.9893 302.212 51.9177 308.864C46.8606 315.498 44.5078 321.987 45.7457 328.014C46.8138 333.215 50.3346 337.641 55.7062 341.342C61.0723 345.039 68.4059 348.102 77.3865 350.573C95.3537 355.516 120.262 358.184 150.137 358.593C209.914 359.412 289.923 351.193 374.863 333.749C459.803 316.304 536.575 292.322 591.191 268.01C618.487 255.859 640.327 243.59 654.892 231.966C662.171 226.155 667.704 220.45 671.179 214.937C674.657 209.419 676.148 203.963 675.08 198.763C673.837 192.711 669.091 187.658 661.787 183.546C654.462 179.422 644.324 176.1 631.788 173.599C606.702 168.596 571.652 166.812 529.376 168.746C529.161 168.755 528.952 168.678 528.793 168.533C528.634 168.388 528.539 168.185 528.53 167.97C528.52 167.754 528.596 167.544 528.741 167.385C528.886 167.226 529.087 167.13 529.302 167.119C574.045 165.073 609.867 167.023 635.087 172.54C647.701 175.299 657.569 178.931 664.559 183.333C671.542 187.73 675.518 192.802 676.675 198.435C678.599 207.802 672.542 218.788 658.535 230.828C644.638 242.773 623.395 255.33 596.222 267.789C541.901 292.696 464.225 317.058 375.191 335.343C286.157 353.629 205.167 361.854 145.426 360.373C115.542 359.632 91.0693 356.465 73.59 350.964C55.9706 345.418 46.0747 337.709 44.1509 328.342C42.9987 322.732 44.6402 316.527 49.2913 309.76C53.9476 302.985 61.5332 295.784 71.969 288.303C92.8335 273.346 124.778 257.488 166.437 241.785Z" stroke="black" stroke-opacity="0.2" stroke-width="3.21479"/>
</g>
<path d="M220.677 383.15C242.474 407.452 270.27 425.603 301.285 435.788C332.3 445.973 365.446 447.835 397.406 441.187C429.367 434.539 459.021 419.615 483.402 397.907C507.783 376.199 526.036 348.469 536.334 317.491C432.398 345.145 327.02 367.065 220.677 383.15V383.15Z" fill="url(#paint2_linear_307_58)"/>
<path d="M220.677 383.15C242.474 407.452 270.27 425.603 301.285 435.788C332.3 445.973 365.446 447.835 397.406 441.187C429.367 434.539 459.021 419.615 483.402 397.907C507.783 376.199 526.036 348.469 536.334 317.491C432.398 345.145 327.02 367.065 220.677 383.15V383.15Z" fill="black" fill-opacity="0.2"/>
<path d="M543.402 263.189C545.577 234.336 541.007 205.373 530.052 178.592C519.098 151.81 502.061 127.946 480.289 108.888C458.517 89.8297 432.608 76.1004 404.613 68.7867C376.617 61.473 347.304 60.7757 318.993 66.75C290.681 72.7242 264.149 85.2059 241.495 103.207C218.842 121.209 200.689 144.236 188.474 170.466C176.258 196.696 170.316 225.409 171.116 254.333C171.917 283.257 179.439 311.598 193.086 337.112C312.564 327.725 430.318 302.877 543.402 263.189Z" fill="url(#paint3_linear_307_58)"/>
<path d="M543.402 263.189C545.577 234.336 541.007 205.373 530.052 178.592C519.098 151.81 502.061 127.946 480.289 108.888C458.517 89.8297 432.608 76.1004 404.613 68.7867C376.617 61.473 347.304 60.7757 318.993 66.75C290.681 72.7242 264.149 85.2059 241.495 103.207C218.842 121.209 200.689 144.236 188.474 170.466C176.258 196.696 170.316 225.409 171.116 254.333C171.917 283.257 179.439 311.598 193.086 337.112C312.564 327.725 430.318 302.877 543.402 263.189Z" fill="black" fill-opacity="0.2"/>
<g filter="url(#filter1_d_307_58)">
<path d="M392.078 417.563C403.867 415.141 411.462 403.621 409.041 391.831C406.619 380.041 395.099 372.447 383.309 374.868C371.519 377.29 363.925 388.81 366.346 400.6C368.768 412.389 380.288 419.984 392.078 417.563Z" fill="url(#paint4_linear_307_58)"/>
<path d="M392.078 417.563C403.867 415.141 411.462 403.621 409.041 391.831C406.619 380.041 395.099 372.447 383.309 374.868C371.519 377.29 363.925 388.81 366.346 400.6C368.768 412.389 380.288 419.984 392.078 417.563Z" fill="black" fill-opacity="0.2"/>
</g>
<g filter="url(#filter2_d_307_58)">
<path d="M293.089 284.631C312.739 280.595 325.397 261.395 321.361 241.745C317.325 222.096 298.125 209.438 278.475 213.474C258.826 217.509 246.168 236.71 250.204 256.359C254.239 276.009 273.44 288.667 293.089 284.631Z" fill="url(#paint5_linear_307_58)"/>
<path d="M293.089 284.631C312.739 280.595 325.397 261.395 321.361 241.745C317.325 222.096 298.125 209.438 278.475 213.474C258.826 217.509 246.168 236.71 250.204 256.359C254.239 276.009 273.44 288.667 293.089 284.631Z" fill="black" fill-opacity="0.2"/>
</g>
<path d="M423.23 335.832C423.23 335.832 428.555 350.083 428.043 363.776L475.81 379.237C475.81 379.237 476.127 369.812 468.727 361.51C461.327 353.208 457.154 346.384 456.038 336.166L423.23 335.832Z" fill="#FF2633"/>
<path d="M451.435 353.31L459.914 352.979" stroke="white" stroke-width="0.830557" stroke-miterlimit="10" stroke-linecap="round"/>
<path d="M477.391 305.132C477.391 305.132 491.709 319.603 500.952 319.143L524.423 280.502C524.423 280.502 518.458 273.997 506.844 282.583C506.844 282.583 504.072 285.131 498.764 284.568C496.248 284.304 493.385 283.088 490.127 280.302L477.391 305.132Z" fill="#FF2633"/>
<path d="M501.042 294.059L501.607 285.578" stroke="white" stroke-width="0.830557" stroke-miterlimit="10" stroke-linecap="round"/>
<path d="M376.724 117.751L384.439 111.891" stroke="#DADEEB" stroke-width="0.830557" stroke-miterlimit="10" stroke-linecap="round"/>
<path d="M377.072 121.836L386.588 120.052" stroke="#DADEEB" stroke-width="0.830557" stroke-miterlimit="10" stroke-linecap="round"/>
<path d="M492.221 278.148C466.51 253.106 439.124 239.419 425.391 232.566C423.278 231.511 420.68 230.211 419.763 229.679C413.146 226.266 409.728 217.062 409.728 217.062L387.007 232.683C386.996 232.658 386.988 232.631 386.982 232.604C386.992 232.636 386.999 232.66 386.987 232.689L386.807 232.811L350.514 234.56C350.638 237.766 352.637 266.258 376.685 280.969C381.829 284.119 391.591 293.211 401.798 306.424C411.945 319.541 417.814 328.051 420.904 338.032L463.197 338.548C457.267 319.395 438.164 293.681 430.705 284.022C425.943 277.827 420.838 271.904 415.414 266.28C430.548 274.079 454.403 288.029 474.932 313.208C474.943 313.187 494.469 280.339 492.221 278.148Z" fill="#22174B"/>
<path d="M420.652 329.484L452.063 330.206" stroke="#DADEEB" stroke-width="0.830557" stroke-miterlimit="10" stroke-linecap="round"/>
<path d="M486.95 273.184C486.95 273.184 480.955 290.175 474.83 299.206" stroke="#DADEEB" stroke-width="0.830557" stroke-miterlimit="10" stroke-linecap="round"/>
<path d="M413.867 264.67C413.867 264.67 405.628 256.439 400.717 253.085L402.383 246.828" stroke="#DADEEB" stroke-width="0.830557" stroke-miterlimit="10" stroke-linecap="round"/>
<path d="M314.524 168.958L284.489 200.076C283.115 201.498 281.273 202.374 279.305 202.539C277.338 202.705 275.378 202.149 273.791 200.976L248.128 181.975C247.285 181.353 246.584 180.557 246.075 179.641C245.565 178.725 245.259 177.709 245.175 176.663C245.091 175.617 245.233 174.565 245.59 173.577C245.948 172.59 246.512 171.691 247.246 170.94L286.709 130.452C287.398 129.747 288.231 129.2 289.151 128.848C290.071 128.496 291.056 128.347 292.038 128.413C293.02 128.479 293.976 128.758 294.84 129.229C295.703 129.701 296.454 130.355 297.04 131.145L315.375 155.812C316.811 157.747 317.513 160.13 317.357 162.537C317.202 164.945 316.197 167.22 314.524 168.958Z" fill="#5A526F"/>
<path d="M314.524 168.958L284.489 200.076C283.115 201.498 281.273 202.374 279.305 202.539C277.338 202.705 275.378 202.149 273.791 200.976L248.128 181.975C247.285 181.353 246.584 180.557 246.075 179.641C245.565 178.725 245.259 177.709 245.175 176.663C245.091 175.617 245.233 174.565 245.59 173.577C245.948 172.59 246.512 171.691 247.246 170.94L286.709 130.452C287.398 129.747 288.231 129.2 289.151 128.848C290.071 128.496 291.056 128.347 292.038 128.413C293.02 128.479 293.976 128.758 294.84 129.229C295.703 129.701 296.454 130.355 297.04 131.145L315.375 155.812C316.811 157.747 317.513 160.13 317.357 162.537C317.202 164.945 316.197 167.22 314.524 168.958Z" fill="black" fill-opacity="0.2"/>
<path d="M280.328 191.808L279.734 196.909C279.718 197.06 279.661 197.204 279.568 197.325C279.476 197.447 279.353 197.54 279.211 197.596C279.07 197.652 278.916 197.668 278.766 197.642C278.616 197.616 278.477 197.549 278.362 197.45L273.731 194.005C273.64 193.937 273.569 193.847 273.526 193.742C273.482 193.638 273.468 193.524 273.484 193.412C273.5 193.3 273.546 193.194 273.617 193.106C273.689 193.018 273.782 192.951 273.888 192.912L279.271 190.906C279.403 190.867 279.543 190.862 279.678 190.89C279.813 190.919 279.939 190.981 280.044 191.07C280.149 191.16 280.23 191.274 280.279 191.403C280.329 191.532 280.346 191.671 280.328 191.808Z" fill="white"/>
<path d="M296.591 174.882L293.482 178.135L283.302 188.784C283.226 188.863 283.136 188.926 283.036 188.97C282.936 189.014 282.829 189.038 282.72 189.041C282.611 189.043 282.502 189.024 282.401 188.985C282.299 188.945 282.206 188.886 282.128 188.811C281.97 188.658 281.879 188.45 281.875 188.23C281.87 188.011 281.953 187.798 282.104 187.639L292.315 176.951L295.497 173.622C295.987 173.914 296.37 174.356 296.591 174.882V174.882Z" fill="white"/>
<path d="M296.683 175.136C296.894 175.754 296.855 176.43 296.573 177.02C296.291 177.61 295.79 178.066 295.177 178.29C294.613 178.464 294.004 178.409 293.481 178.136C292.973 177.881 292.566 177.463 292.323 176.948C292.161 176.63 292.067 176.281 292.047 175.924C292.027 175.567 292.082 175.21 292.208 174.875C292.334 174.541 292.528 174.236 292.778 173.98C293.028 173.724 293.328 173.524 293.66 173.39C293.967 173.297 294.289 173.269 294.607 173.309C294.925 173.349 295.231 173.454 295.505 173.62C295.992 173.914 296.372 174.356 296.591 174.882C296.625 174.963 296.656 175.049 296.683 175.136Z" fill="white"/>
<path d="M311.08 159.718L296.59 174.882C296.371 174.356 295.991 173.914 295.504 173.62L309.882 158.574C309.955 158.487 310.045 158.416 310.147 158.366C310.248 158.316 310.359 158.286 310.472 158.28C310.585 158.274 310.698 158.291 310.804 158.331C310.91 158.37 311.007 158.43 311.089 158.509C311.17 158.587 311.235 158.681 311.279 158.785C311.324 158.889 311.346 159.002 311.345 159.115C311.344 159.228 311.32 159.34 311.275 159.444C311.229 159.548 311.163 159.641 311.08 159.718V159.718Z" fill="#FF2633"/>
<path d="M371.742 155.955C371.742 155.955 377.754 157.638 401.689 182.742C406.291 187.566 411.906 190.892 427.706 188.622L418.426 209.691C418.426 209.691 393.413 210.157 388.022 199.694C382.631 189.23 371.742 155.955 371.742 155.955Z" fill="#5222D0"/>
<path d="M371.742 155.955C371.742 155.955 377.754 157.638 401.689 182.742C406.291 187.566 411.906 190.892 427.706 188.622L418.426 209.691C418.426 209.691 393.413 210.157 388.022 199.694C382.631 189.23 371.742 155.955 371.742 155.955Z" fill="black" fill-opacity="0.2"/>
<path d="M392.543 181.035C387.389 169.036 378.661 158.325 369.275 154.884C363.067 152.609 357.931 153.458 351.187 155.562C334.6 160.735 325.381 183.894 327.577 205.256C327.664 209.184 328.546 213.053 330.172 216.627C333.889 225.712 341.315 231.291 349.901 233.75C372.78 241.514 402.25 223.383 402.25 223.383C401.207 204.133 396.667 190.089 392.543 181.035Z" fill="#5222D0"/>
<path d="M392.543 181.035C387.389 169.036 378.661 158.325 369.275 154.884C363.067 152.609 357.931 153.458 351.187 155.562C334.6 160.735 325.381 183.894 327.577 205.256C327.664 209.184 328.546 213.053 330.172 216.627C333.889 225.712 341.315 231.291 349.901 233.75C372.78 241.514 402.25 223.383 402.25 223.383C401.207 204.133 396.667 190.089 392.543 181.035Z" fill="black" fill-opacity="0.2"/>
<path d="M375.704 164.167C375.704 164.167 391.177 177.638 394.836 214.281" stroke="#DADEEB" stroke-width="0.830557" stroke-miterlimit="10" stroke-linecap="round"/>
<path d="M433.604 178.469C433.88 178.401 434.167 178.398 434.444 178.461C434.721 178.524 434.979 178.651 435.197 178.832C435.416 179.013 435.589 179.242 435.703 179.502C435.817 179.763 435.869 180.046 435.854 180.33L435.486 210.921C435.491 211.461 435.348 211.992 435.072 212.456C434.797 212.921 434.4 213.302 433.925 213.557L397.583 232.378C397.449 232.446 397.309 232.501 397.165 232.543C396.886 232.615 396.595 232.629 396.31 232.584C396.025 232.539 395.753 232.436 395.51 232.281C395.267 232.127 395.057 231.924 394.896 231.686C394.734 231.448 394.622 231.178 394.568 230.895L393.296 201.846C393.243 200.842 393.482 199.844 393.984 198.973C394.485 198.101 395.228 197.392 396.121 196.932L433.234 178.637C433.35 178.566 433.474 178.51 433.604 178.469V178.469Z" fill="#5A526F"/>
<path d="M433.604 178.469C433.88 178.401 434.167 178.398 434.444 178.461C434.721 178.524 434.979 178.651 435.197 178.832C435.416 179.013 435.589 179.242 435.703 179.502C435.817 179.763 435.869 180.046 435.854 180.33L435.486 210.921C435.491 211.461 435.348 211.992 435.072 212.456C434.797 212.921 434.4 213.302 433.925 213.557L397.583 232.378C397.449 232.446 397.309 232.501 397.165 232.543C396.886 232.615 396.595 232.629 396.31 232.584C396.025 232.539 395.753 232.436 395.51 232.281C395.267 232.127 395.057 231.924 394.896 231.686C394.734 231.448 394.622 231.178 394.568 230.895L393.296 201.846C393.243 200.842 393.482 199.844 393.984 198.973C394.485 198.101 395.228 197.392 396.121 196.932L433.234 178.637C433.35 178.566 433.474 178.51 433.604 178.469V178.469Z" fill="black" fill-opacity="0.2"/>
<path d="M432.476 178.082C432.221 178.032 431.957 178.042 431.707 178.113C431.572 178.149 431.443 178.201 431.32 178.268L394.208 196.564C393.314 197.023 392.572 197.732 392.07 198.604C391.569 199.476 391.33 200.474 391.382 201.477L392.658 230.525C392.742 230.941 392.946 231.322 393.245 231.622C393.544 231.922 393.926 232.126 394.341 232.21L396.238 232.567C395.822 232.483 395.441 232.279 395.142 231.979C394.842 231.679 394.638 231.297 394.555 230.882L393.283 201.833C393.231 200.829 393.47 199.831 393.971 198.959C394.473 198.087 395.215 197.379 396.109 196.919L433.222 178.623C433.571 178.432 433.976 178.366 434.368 178.436L432.476 178.082Z" fill="url(#paint6_radial_307_58)"/>
<path d="M369.383 216.442C369.383 216.442 376.014 208.963 381.305 205.046C386.596 201.13 391.724 198.343 393.051 198.699C394.027 198.956 395.629 201.997 391.879 207.691C391.879 207.691 396.934 207.884 401.231 206.514C405.309 205.207 408.61 204.173 410.626 207.499C410.954 208.04 411.035 209.046 410.9 210.35C410.585 212.687 409.979 214.976 409.097 217.163C408.376 219.026 407.518 220.833 406.532 222.57C403.628 227.652 399.47 232.167 394.548 232.741C387.884 233.507 381.159 233.563 374.485 232.908C374.485 232.908 364.476 233.141 369.383 216.442Z" fill="#F3ABAA"/>
<path d="M404.752 213.468C403.659 213.814 402.545 214.089 401.416 214.291C401.362 214.3 401.307 214.298 401.253 214.286C401.199 214.274 401.149 214.251 401.104 214.219C401.013 214.155 400.952 214.057 400.934 213.947C400.916 213.838 400.941 213.725 401.006 213.634C401.07 213.544 401.168 213.482 401.278 213.464C401.325 213.449 406.234 212.623 409.658 210.315C409.703 210.285 409.754 210.263 409.808 210.253C409.861 210.242 409.917 210.242 409.97 210.252C410.024 210.263 410.075 210.284 410.12 210.314C410.165 210.344 410.204 210.383 410.235 210.429C410.265 210.474 410.286 210.525 410.297 210.579C410.307 210.632 410.307 210.687 410.297 210.741C410.286 210.795 410.265 210.846 410.235 210.891C410.204 210.937 410.165 210.976 410.12 211.006C408.454 212.074 406.647 212.902 404.752 213.468V213.468Z" fill="#FF2633"/>
<path d="M405.761 218.734C404.762 219.045 403.472 219.4 401.835 219.771C401.782 219.783 401.727 219.785 401.673 219.776C401.619 219.767 401.567 219.747 401.521 219.718C401.475 219.688 401.435 219.65 401.403 219.605C401.372 219.561 401.35 219.51 401.338 219.457C401.315 219.349 401.335 219.237 401.394 219.144C401.454 219.051 401.547 218.986 401.654 218.962C406.378 217.889 408.172 216.929 408.192 216.923C408.289 216.871 408.402 216.86 408.507 216.891C408.612 216.923 408.701 216.995 408.753 217.092C408.804 217.188 408.816 217.301 408.785 217.406C408.754 217.511 408.683 217.599 408.587 217.652C407.679 218.096 406.733 218.458 405.761 218.734V218.734Z" fill="#FF2633"/>
<path d="M400.875 224.617L399.833 224.942C399.728 224.975 399.614 224.965 399.516 224.913C399.419 224.862 399.346 224.774 399.313 224.669C399.281 224.564 399.291 224.45 399.343 224.352C399.394 224.255 399.482 224.181 399.587 224.149C403.973 222.868 405.266 222.004 405.276 221.996C405.367 221.933 405.479 221.909 405.587 221.928C405.695 221.948 405.792 222.01 405.854 222.101C405.917 222.191 405.941 222.303 405.921 222.412C405.901 222.52 405.839 222.616 405.749 222.679C405.696 222.705 404.57 223.465 400.875 224.617Z" fill="#FF2633"/>
<path d="M398.485 229.538C397.819 229.746 397.052 229.95 396.167 230.152C396.114 230.165 396.058 230.166 396.005 230.157C395.951 230.148 395.899 230.129 395.853 230.1C395.759 230.041 395.693 229.948 395.668 229.84C395.643 229.733 395.663 229.619 395.721 229.526C395.78 229.432 395.873 229.365 395.981 229.34C400.591 228.294 401.781 227.096 401.797 227.065C401.872 226.985 401.976 226.938 402.085 226.934C402.195 226.93 402.301 226.969 402.382 227.044C402.462 227.118 402.51 227.22 402.515 227.329C402.521 227.438 402.483 227.545 402.41 227.627C402.364 227.676 401.518 228.592 398.485 229.538Z" fill="#FF2633"/>
<path d="M334.534 170.056C334.534 170.056 320.137 189.45 324.042 221.932C324.042 221.932 325.138 230.681 331.365 233.285C337.592 235.889 356.891 239.322 378.211 233.217C378.211 233.217 367.085 231.232 369.384 216.442C369.384 216.442 355.097 215.765 350.093 211.901C345.089 208.038 350.938 190.392 350.938 190.392C350.938 190.392 351.382 144.787 334.534 170.056Z" fill="#5222D0"/>
<path d="M334.534 170.056C334.534 170.056 320.137 189.45 324.042 221.932C324.042 221.932 325.138 230.681 331.365 233.285C337.592 235.889 356.891 239.322 378.211 233.217C378.211 233.217 367.085 231.232 369.384 216.442C369.384 216.442 355.097 215.765 350.093 211.901C345.089 208.038 350.938 190.392 350.938 190.392C350.938 190.392 351.382 144.787 334.534 170.056Z" fill="black" fill-opacity="0.2"/>
<path d="M347.076 190.148C347.076 190.148 345.441 209.581 351.732 212.799C354.032 213.979 358.148 215.801 368.369 216.38" stroke="#DADEEB" stroke-width="0.830557" stroke-miterlimit="10" stroke-linecap="round"/>
<path d="M417.034 201.35C418.929 200.45 421.022 201.594 421.689 203.905C422.357 206.215 421.345 208.832 419.438 209.735C417.532 210.639 415.449 209.488 414.784 207.172C414.12 204.856 415.131 202.253 417.034 201.35Z" fill="white"/>
<path d="M435.886 181.372C435.886 181.372 452.579 189.951 439.149 209.774C439.149 209.774 432.173 217.022 426.206 212.632C426.206 212.632 422.046 207.465 425.927 200.161C426.49 198.757 427.419 197.529 428.617 196.607C430.472 195.311 434.735 191.219 435.463 188.934C436.19 186.65 435.886 181.372 435.886 181.372Z" fill="#F3ABAA"/>
<path d="M428.62 202.752C427.923 203.008 427.165 203.041 426.45 202.846C426.112 202.741 425.803 202.559 425.548 202.314C425.293 202.069 425.098 201.768 424.978 201.435C424.945 201.33 424.956 201.216 425.007 201.118C425.058 201.021 425.146 200.947 425.252 200.915C425.357 200.882 425.47 200.892 425.568 200.943C425.665 200.995 425.738 201.082 425.771 201.188C425.851 201.396 425.979 201.583 426.143 201.733C426.307 201.884 426.504 201.995 426.718 202.058C427.488 202.296 428.984 202.143 431.71 200.066C434.658 197.794 435.106 197.093 435.144 197.02C435.184 196.925 435.258 196.848 435.352 196.805C435.445 196.761 435.551 196.754 435.649 196.784C435.755 196.817 435.843 196.89 435.894 196.987C435.945 197.084 435.956 197.198 435.923 197.303C435.858 197.528 435.364 198.305 432.201 200.726C431.131 201.601 429.92 202.286 428.62 202.752V202.752Z" fill="#FF2633"/>
<path d="M428.69 207.194C425.519 208.183 423.965 205.974 423.957 205.947C423.895 205.856 423.871 205.744 423.892 205.636C423.912 205.527 423.974 205.432 424.065 205.369C424.156 205.307 424.268 205.283 424.376 205.303C424.484 205.323 424.579 205.386 424.642 205.477C424.713 205.58 426.386 207.882 430.067 205.646C432.961 203.873 433.671 203.243 433.671 203.243C433.751 203.171 433.856 203.133 433.964 203.137C434.072 203.141 434.174 203.187 434.248 203.265C434.322 203.343 434.364 203.447 434.363 203.555C434.362 203.663 434.319 203.766 434.243 203.843C434.212 203.853 433.522 204.504 430.504 206.354C429.936 206.707 429.327 206.989 428.69 207.194V207.194Z" fill="#FF2633"/>
<path d="M430.133 211.476C429.287 211.753 428.394 211.857 427.507 211.782C426.621 211.706 425.758 211.453 424.972 211.037C424.926 211.008 424.886 210.97 424.855 210.926C424.823 210.881 424.801 210.831 424.789 210.778C424.777 210.725 424.775 210.67 424.784 210.616C424.794 210.562 424.813 210.511 424.842 210.464C424.901 210.372 424.994 210.307 425.1 210.283C425.207 210.259 425.318 210.277 425.411 210.335C425.55 210.418 428.772 212.332 432.589 209.158C432.674 209.087 432.783 209.052 432.893 209.062C433.003 209.072 433.104 209.125 433.175 209.21C433.245 209.294 433.279 209.404 433.269 209.514C433.259 209.624 433.206 209.725 433.121 209.796C432.246 210.548 431.23 211.119 430.133 211.476Z" fill="#FF2633"/>
<path d="M361.985 130.742L361.985 130.742C362.294 128.226 363.135 126.026 364.233 124.505C365.336 122.976 366.664 122.172 367.949 122.331C370.568 122.654 372.979 125.71 372.348 131.519C372.075 134.031 371.067 136.334 369.788 137.962C368.5 139.603 366.982 140.508 365.699 140.35C364.414 140.191 363.327 139.089 362.634 137.339C361.945 135.596 361.67 133.258 361.985 130.742Z" fill="#5222D0"/>
<path d="M361.985 130.742L361.985 130.742C362.294 128.226 363.135 126.026 364.233 124.505C365.336 122.976 366.664 122.172 367.949 122.331C370.568 122.654 372.979 125.71 372.348 131.519C372.075 134.031 371.067 136.334 369.788 137.962C368.5 139.603 366.982 140.508 365.699 140.35C364.414 140.191 363.327 139.089 362.634 137.339C361.945 135.596 361.67 133.258 361.985 130.742Z" fill="black" fill-opacity="0.2"/>
<path d="M361.985 130.742L361.985 130.742C362.294 128.226 363.135 126.026 364.233 124.505C365.336 122.976 366.664 122.172 367.949 122.331C370.568 122.654 372.979 125.71 372.348 131.519C372.075 134.031 371.067 136.334 369.788 137.962C368.5 139.603 366.982 140.508 365.699 140.35C364.414 140.191 363.327 139.089 362.634 137.339C361.945 135.596 361.67 133.258 361.985 130.742Z" stroke="white" stroke-width="0.415278"/>
<path d="M369.179 123.238C370.271 123.373 371.202 124.313 371.798 125.823C372.39 127.325 372.627 129.342 372.355 131.516C372.083 133.689 371.357 135.587 370.413 136.899C369.464 138.218 368.329 138.903 367.237 138.768C366.145 138.633 365.214 137.692 364.618 136.183C364.026 134.681 363.789 132.664 364.061 130.49C364.333 128.317 365.059 126.419 366.003 125.107C366.953 123.788 368.088 123.103 369.179 123.238Z" fill="#5222D0"/>
<path d="M369.179 123.238C370.271 123.373 371.202 124.313 371.798 125.823C372.39 127.325 372.627 129.342 372.355 131.516C372.083 133.689 371.357 135.587 370.413 136.899C369.464 138.218 368.329 138.903 367.237 138.768C366.145 138.633 365.214 137.692 364.618 136.183C364.026 134.681 363.789 132.664 364.061 130.49C364.333 128.317 365.059 126.419 366.003 125.107C366.953 123.788 368.088 123.103 369.179 123.238Z" fill="black" fill-opacity="0.2"/>
<path d="M369.179 123.238C370.271 123.373 371.202 124.313 371.798 125.823C372.39 127.325 372.627 129.342 372.355 131.516C372.083 133.689 371.357 135.587 370.413 136.899C369.464 138.218 368.329 138.903 367.237 138.768C366.145 138.633 365.214 137.692 364.618 136.183C364.026 134.681 363.789 132.664 364.061 130.49C364.333 128.317 365.059 126.419 366.003 125.107C366.953 123.788 368.088 123.103 369.179 123.238Z" stroke="white" stroke-width="0.415278"/>
<path d="M343.685 156.164L343.685 156.164L344.882 141.357L360.82 143.816C360.822 143.871 360.824 143.937 360.826 144.015C360.834 144.254 360.846 144.598 360.866 145.019C360.907 145.86 360.978 147.008 361.1 148.236C361.222 149.464 361.396 150.775 361.642 151.939C361.881 153.067 362.193 154.081 362.606 154.748C362.604 154.782 362.599 154.834 362.588 154.901C362.564 155.041 362.512 155.248 362.396 155.499C362.164 156 361.677 156.69 360.641 157.39C357.146 159.746 349.979 162.255 343.397 159.689L343.685 156.164Z" fill="#F3ABAA" stroke="url(#paint7_radial_307_58)" stroke-width="0.415278"/>
<path d="M345.046 141.383L360.82 143.816C360.821 143.878 360.824 143.956 360.827 144.048C360.836 144.307 360.851 144.68 360.874 145.132C360.918 145.988 360.992 147.133 361.115 148.347C354.686 148.899 350.638 147.078 348.196 145.125C346.959 144.137 346.129 143.111 345.61 142.334C345.35 141.945 345.168 141.619 345.051 141.392C345.049 141.389 345.048 141.386 345.046 141.383Z" fill="#22174B" stroke="url(#paint8_radial_307_58)" stroke-width="0.415278"/>
<path d="M369.214 124.287C371.934 133.074 367.454 142.258 359.242 144.819C351.03 147.38 342.153 142.362 339.433 133.575C336.713 124.789 341.193 115.604 349.405 113.043C357.617 110.482 366.494 115.5 369.214 124.287Z" fill="#F3ABAA" stroke="url(#paint9_radial_307_58)" stroke-width="0.415278"/>
<path d="M348.936 112.754C342.619 114.724 338.617 120.886 338.162 128.033L335.689 128.066C335.14 122.363 336.006 118.38 337.917 115.533C339.849 112.654 342.872 110.9 346.678 109.713C356.184 106.748 366.674 113.22 370.087 124.245C370.444 125.399 370.714 126.578 370.894 127.772L370.535 127.776C370.427 127.281 370.278 126.8 370.131 126.325L370.129 126.32C366.994 116.192 357.529 110.074 348.936 112.754Z" fill="#5222D0"/>
<path d="M348.936 112.754C342.619 114.724 338.617 120.886 338.162 128.033L335.689 128.066C335.14 122.363 336.006 118.38 337.917 115.533C339.849 112.654 342.872 110.9 346.678 109.713C356.184 106.748 366.674 113.22 370.087 124.245C370.444 125.399 370.714 126.578 370.894 127.772L370.535 127.776C370.427 127.281 370.278 126.8 370.131 126.325L370.129 126.32C366.994 116.192 357.529 110.074 348.936 112.754Z" fill="black" fill-opacity="0.2"/>
<path d="M348.936 112.754C342.619 114.724 338.617 120.886 338.162 128.033L335.689 128.066C335.14 122.363 336.006 118.38 337.917 115.533C339.849 112.654 342.872 110.9 346.678 109.713C356.184 106.748 366.674 113.22 370.087 124.245C370.444 125.399 370.714 126.578 370.894 127.772L370.535 127.776C370.427 127.281 370.278 126.8 370.131 126.325L370.129 126.32C366.994 116.192 357.529 110.074 348.936 112.754Z" stroke="white" stroke-width="0.415278"/>
<path d="M358.286 104.959L358.393 105.011L358.492 104.946C359.226 104.458 360.026 104.076 360.867 103.813C365.576 102.345 370.535 104.853 371.944 109.402C372.575 111.457 372.397 113.677 371.446 115.607L371.394 115.713L371.459 115.813C371.914 116.506 372.33 118.086 372.231 120.199C372.138 122.171 371.597 124.584 370.241 127.127C369.725 124.574 368.655 122.163 367.104 120.067L366.988 119.911L366.825 120.016C366.577 120.175 366.295 120.272 366.003 120.299L365.991 120.301L365.979 120.303C360.998 121.366 358.457 119.861 356.251 118.555C355.456 118.084 354.705 117.639 353.899 117.349L353.898 117.349C351.572 116.526 348.246 117.81 345.934 122.625L345.934 122.626C344.789 125.012 343.17 125.944 341.847 126.289C341.183 126.462 340.588 126.488 340.16 126.47C339.947 126.461 339.775 126.442 339.659 126.425C339.633 126.421 339.61 126.417 339.59 126.414C338.88 124.55 338.422 122.598 338.23 120.611C338.222 114.996 339.87 111.053 342.187 108.389C344.508 105.722 347.511 104.324 350.232 103.827C352.97 103.347 355.789 103.743 358.286 104.959Z" fill="#22174B" stroke="url(#paint10_radial_307_58)" stroke-width="0.415278"/>
<path d="M334.763 133.853L334.763 133.853C332.8 128.349 334.439 124.817 336.91 123.883C338.121 123.425 339.596 123.896 341.023 125.125C342.443 126.349 343.772 128.292 344.662 130.665C345.551 133.038 345.824 135.375 345.557 137.23C345.288 139.094 344.486 140.419 343.275 140.873C342.065 141.327 340.379 140.803 338.745 139.512C337.124 138.23 335.61 136.229 334.763 133.853Z" fill="#5222D0"/>
<path d="M334.763 133.853L334.763 133.853C332.8 128.349 334.439 124.817 336.91 123.883C338.121 123.425 339.596 123.896 341.023 125.125C342.443 126.349 343.772 128.292 344.662 130.665C345.551 133.038 345.824 135.375 345.557 137.23C345.288 139.094 344.486 140.419 343.275 140.873C342.065 141.327 340.379 140.803 338.745 139.512C337.124 138.23 335.61 136.229 334.763 133.853Z" fill="black" fill-opacity="0.2"/>
<path d="M334.763 133.853L334.763 133.853C332.8 128.349 334.439 124.817 336.91 123.883C338.121 123.425 339.596 123.896 341.023 125.125C342.443 126.349 343.772 128.292 344.662 130.665C345.551 133.038 345.824 135.375 345.557 137.23C345.288 139.094 344.486 140.419 343.275 140.873C342.065 141.327 340.379 140.803 338.745 139.512C337.124 138.23 335.61 136.229 334.763 133.853Z" stroke="white" stroke-width="0.415278"/>
<path d="M342.592 130.913C343.359 132.962 343.596 134.979 343.368 136.579C343.138 138.187 342.45 139.321 341.42 139.71C340.39 140.098 339.128 139.699 337.899 138.64C336.678 137.587 335.532 135.912 334.764 133.863C333.997 131.813 333.76 129.796 333.988 128.196C334.217 126.588 334.905 125.454 335.936 125.066C336.966 124.677 338.228 125.076 339.457 126.135C340.678 127.189 341.824 128.863 342.592 130.913Z" fill="#5222D0"/>
<path d="M342.592 130.913C343.359 132.962 343.596 134.979 343.368 136.579C343.138 138.187 342.45 139.321 341.42 139.71C340.39 140.098 339.128 139.699 337.899 138.64C336.678 137.587 335.532 135.912 334.764 133.863C333.997 131.813 333.76 129.796 333.988 128.196C334.217 126.588 334.905 125.454 335.936 125.066C336.966 124.677 338.228 125.076 339.457 126.135C340.678 127.189 341.824 128.863 342.592 130.913Z" fill="black" fill-opacity="0.2"/>
<path d="M342.592 130.913C343.359 132.962 343.596 134.979 343.368 136.579C343.138 138.187 342.45 139.321 341.42 139.71C340.39 140.098 339.128 139.699 337.899 138.64C336.678 137.587 335.532 135.912 334.764 133.863C333.997 131.813 333.76 129.796 333.988 128.196C334.217 126.588 334.905 125.454 335.936 125.066C336.966 124.677 338.228 125.076 339.457 126.135C340.678 127.189 341.824 128.863 342.592 130.913Z" stroke="white" stroke-width="0.415278"/>
<path d="M356.32 125.853C356.521 125.859 356.75 126.029 356.933 126.416C357.112 126.793 357.219 127.324 357.2 127.917C357.181 128.51 357.04 129.033 356.837 129.398C356.628 129.773 356.389 129.929 356.188 129.923C355.987 129.917 355.759 129.747 355.575 129.359C355.396 128.982 355.289 128.452 355.308 127.859C355.328 127.265 355.469 126.742 355.671 126.377C355.88 126.002 356.119 125.846 356.32 125.853Z" fill="#22174B" stroke="url(#paint11_radial_307_58)" stroke-width="0.415278"/>
<path d="M366.05 125.438C366.251 125.444 366.481 125.615 366.666 126.005C366.845 126.384 366.952 126.918 366.931 127.515C366.911 128.111 366.768 128.637 366.564 129.004C366.354 129.381 366.113 129.537 365.911 129.531C365.709 129.524 365.479 129.353 365.295 128.963C365.116 128.584 365.009 128.05 365.029 127.453C365.049 126.857 365.192 126.331 365.396 125.964C365.607 125.587 365.848 125.431 366.05 125.438Z" fill="#22174B" stroke="url(#paint12_radial_307_58)" stroke-width="0.417639"/>
<path d="M350.513 135.314C350.086 136.587 351.625 139.047 354.615 138.297" stroke="url(#paint13_radial_307_58)" stroke-width="0.830557" stroke-miterlimit="10" stroke-linecap="round"/>
<path d="M361.393 129.088L361.763 133.836C361.774 133.973 361.756 134.111 361.711 134.241C361.666 134.371 361.595 134.49 361.502 134.592C361.409 134.693 361.296 134.774 361.17 134.83C361.045 134.885 360.909 134.915 360.772 134.916L359.644 134.924" stroke="url(#paint14_radial_307_58)" stroke-width="0.830557" stroke-miterlimit="10" stroke-linecap="round"/>
<defs>
<filter id="filter0_i_307_58" x="38.9737" y="164.719" width="639.658" height="200.003" filterUnits="userSpaceOnUse" color-interpolation-filters="sRGB">
<feFlood flood-opacity="0" result="BackgroundImageFix"/>
<feBlend mode="normal" in="SourceGraphic" in2="BackgroundImageFix" result="shape"/>
<feColorMatrix in="SourceAlpha" type="matrix" values="0 0 0 0 0 0 0 0 0 0 0 0 0 0 0 0 0 0 127 0" result="hardAlpha"/>
<feOffset dx="-6.42958" dy="2.57183"/>
<feGaussianBlur stdDeviation="1.6074"/>
<feComposite in2="hardAlpha" operator="arithmetic" k2="-1" k3="1"/>
<feColorMatrix type="matrix" values="0 0 0 0 0 0 0 0 0 0 0 0 0 0 0 0 0 0 0.25 0"/>
<feBlend mode="normal" in2="shape" result="effect1_innerShadow_307_58"/>
</filter>
<filter id="filter1_d_307_58" x="363.325" y="374.418" width="48.7374" height="48.7379" filterUnits="userSpaceOnUse" color-interpolation-filters="sRGB">
<feFlood flood-opacity="0" result="BackgroundImageFix"/>
<feColorMatrix in="SourceAlpha" type="matrix" values="0 0 0 0 0 0 0 0 0 0 0 0 0 0 0 0 0 0 127 0" result="hardAlpha"/>
<feOffset dy="2.57183"/>
<feGaussianBlur stdDeviation="1.28592"/>
<feComposite in2="hardAlpha" operator="out"/>
<feColorMatrix type="matrix" values="0 0 0 0 0 0 0 0 0 0 0 0 0 0 0 0 0 0 0.25 0"/>
<feBlend mode="normal" in2="BackgroundImageFix" result="effect1_dropShadow_307_58"/>
<feBlend mode="normal" in="SourceGraphic" in2="effect1_dropShadow_307_58" result="shape"/>
</filter>
<filter id="filter2_d_307_58" x="246.882" y="212.724" width="77.7999" height="77.8006" filterUnits="userSpaceOnUse" color-interpolation-filters="sRGB">
<feFlood flood-opacity="0" result="BackgroundImageFix"/>
<feColorMatrix in="SourceAlpha" type="matrix" values="0 0 0 0 0 0 0 0 0 0 0 0 0 0 0 0 0 0 127 0" result="hardAlpha"/>
<feOffset dy="2.57183"/>
<feGaussianBlur stdDeviation="1.28592"/>
<feComposite in2="hardAlpha" operator="out"/>
<feColorMatrix type="matrix" values="0 0 0 0 0 0 0 0 0 0 0 0 0 0 0 0 0 0 0.25 0"/>
<feBlend mode="normal" in2="BackgroundImageFix" result="effect1_dropShadow_307_58"/>
<feBlend mode="normal" in="SourceGraphic" in2="effect1_dropShadow_307_58" result="shape"/>
</filter>
<radialGradient id="paint0_radial_307_58" cx="0" cy="0" r="1" gradientUnits="userSpaceOnUse" gradientTransform="translate(388.977 396.88) rotate(90) scale(174 318.394)">
<stop stop-color="#22174B"/>
<stop offset="1" stop-color="#22174B" stop-opacity="0"/>
</radialGradient>
<linearGradient id="paint1_linear_307_58" x1="43.8965" y1="335.093" x2="679.569" y2="204.539" gradientUnits="userSpaceOnUse">
<stop stop-color="#8800FF"/>
<stop offset="0.989583" stop-color="#DA22FF"/>
</linearGradient>
<linearGradient id="paint2_linear_307_58" x1="229.89" y1="428.01" x2="545.711" y2="363.147" gradientUnits="userSpaceOnUse">
<stop stop-color="#8800FF"/>
<stop offset="0.989583" stop-color="#DA22FF"/>
</linearGradient>
<linearGradient id="paint3_linear_307_58" x1="162.513" y1="226.582" x2="527.774" y2="151.565" gradientUnits="userSpaceOnUse">
<stop stop-color="#8800FF"/>
<stop offset="0.989583" stop-color="#DA22FF"/>
</linearGradient>
<linearGradient id="paint4_linear_307_58" x1="366.346" y1="400.6" x2="409.041" y2="391.831" gradientUnits="userSpaceOnUse">
<stop stop-color="#8800FF"/>
<stop offset="0.989583" stop-color="#DA22FF"/>
</linearGradient>
<linearGradient id="paint5_linear_307_58" x1="250.204" y1="256.359" x2="321.361" y2="241.745" gradientUnits="userSpaceOnUse">
<stop stop-color="#8800FF"/>
<stop offset="0.989583" stop-color="#DA22FF"/>
</linearGradient>
<radialGradient id="paint6_radial_307_58" cx="0" cy="0" r="1" gradientUnits="userSpaceOnUse" gradientTransform="translate(413.79 205.396) rotate(72.7981) scale(20.7127 27.6298)">
<stop stop-color="#0F0826"/>
<stop offset="1" stop-color="#0F0826"/>
</radialGradient>
<radialGradient id="paint7_radial_307_58" cx="0" cy="0" r="1" gradientUnits="userSpaceOnUse" gradientTransform="translate(351.595 150.097) rotate(72.7981) scale(10.6271 10.9176)">
<stop stop-color="#0F0826"/>
<stop offset="1" stop-color="#0F0826"/>
</radialGradient>
<radialGradient id="paint8_radial_307_58" cx="0" cy="0" r="1" gradientUnits="userSpaceOnUse" gradientTransform="translate(353.563 144.656) rotate(72.7981) scale(6.01946 7.42723)">
<stop stop-color="#0F0826"/>
<stop offset="1" stop-color="#0F0826"/>
</radialGradient>
<radialGradient id="paint9_radial_307_58" cx="0" cy="0" r="1" gradientUnits="userSpaceOnUse" gradientTransform="translate(354.324 128.931) rotate(72.7981) scale(16.8395 15.8055)">
<stop stop-color="#0F0826"/>
<stop offset="1" stop-color="#0F0826"/>
</radialGradient>
<radialGradient id="paint10_radial_307_58" cx="0" cy="0" r="1" gradientUnits="userSpaceOnUse" gradientTransform="translate(355.488 117.083) rotate(72.7981) scale(14.531 18.1992)">
<stop stop-color="#0F0826"/>
<stop offset="1" stop-color="#0F0826"/>
</radialGradient>
<radialGradient id="paint11_radial_307_58" cx="0" cy="0" r="1" gradientUnits="userSpaceOnUse" gradientTransform="translate(356.254 127.888) rotate(1.76088) scale(1.15373 2.24395)">
<stop stop-color="#0F0826"/>
<stop offset="1" stop-color="#0F0826"/>
</radialGradient>
<radialGradient id="paint12_radial_307_58" cx="0" cy="0" r="1" gradientUnits="userSpaceOnUse" gradientTransform="translate(365.98 127.484) rotate(1.8466) scale(1.16028 2.25671)">
<stop stop-color="#0F0826"/>
<stop offset="1" stop-color="#0F0826"/>
</radialGradient>
<radialGradient id="paint13_radial_307_58" cx="0" cy="0" r="1" gradientUnits="userSpaceOnUse" gradientTransform="translate(352.425 136.849) rotate(72.7981) scale(2.03486 1.66279)">
<stop stop-color="#0F0826"/>
<stop offset="1" stop-color="#0F0826"/>
</radialGradient>
<radialGradient id="paint14_radial_307_58" cx="0" cy="0" r="1" gradientUnits="userSpaceOnUse" gradientTransform="translate(360.573 132.183) rotate(72.7981) scale(2.71052 1.69848)">
<stop stop-color="#0F0826"/>
<stop offset="1" stop-color="#0F0826"/>
</radialGradient>
</defs>
</svg>
